[img]http://img52.imageshack.us/img52/4716/blankey.png[/img]



General Information :
[img]http://img146.imageshack.us/img146/4286/mxmg.jpg[/img]


Screens :
[img]http://img29.imageshack.us/img29/8328/screenshot2011041814h43.png[/img]

[img]http://img130.imageshack.us/img130/4308/screenshot2011041814h41.png[/img]

[img]http://img863.imageshack.us/img863/3089/screenshot2011041814h42.png[/img]

[img]http://img691.imageshack.us/img691/8328/screenshot2011041814h43.png[/img]

[img]http://img841.imageshack.us/img841/8328/screenshot2011041814h43.png[/img]



[code]
#  XVID 1.3.1  - Latest version used to optimize and deliver the Max Quality.
# All standalone DVD Players compatible.
# Releases are made with the Top Quality Presets and are the Finest among other releases.
# Download only from Genuine MXMG Accounts only!
# Be aware of fake content and Bogus releases.

MXMG ----- Single File\Extreme Quality\Limited Size\Fast Downloads
[/code]


[code]
Seedboxes provided by   http://www.chociz.com/
A seedbox is a private dedicated server used for the uploading and downloading of digital files.
Speed - You can sit back, relax and watch in amazement at how fast the torrents finish. 
Secure and Safe - With a seedbox, you don’t even need to use a BitTorrent client on your home computer!
Use Private Trackers -  You can register @ Private Trackers and seed like Hell!

Get a Cheap Seedbox choosing for your taste - [url]http://www.chociz.com/whmcs/cart.php[/url]
[/code]


[quote]
Format                           : AVI
Format/Info                      : Audio Video Interleave
File size                        : 1.43 GiB
Duration                         : 1h 31mn
Overall bit rate                 : 2 243 Kbps
Writing application              : VirtualDubMod 1.5.10.3 | www.virtualdub-fr.org || (build 2550/release)
Writing library                  : VirtualDubMod build 2550/release

Video
ID                               : 0
Format                           : MPEG-4 Visual
Format profile                   : Advanced Simple@L5
Format settings, BVOP            : 1
Format settings, QPel            : No
Format settings, GMC             : No warppoints
Format settings, Matrix          : Default (H.263)
Codec ID                         : XVID
Codec ID/Hint                    : XviD
Duration                         : 1h 31mn
Bit rate                         : 1 850 Kbps
Width                            : 720 pixels
Height                           : 304 pixels
Display aspect ratio             : 2.35:1
Frame rate                       : 23.976 fps
Color space                      : YUV
Chroma subsampling               : 4:2:0
Bit depth                        : 8 bits
Scan type                        : Progressive
Compression mode                 : Lossy
Bits/(Pixel*Frame)               : 0.352
Stream size                      : 1.18 GiB (82%)
Writing library                  : XviD 63

Audio
ID                               : 1
Format                           : AC-3
Format/Info                      : Audio Coding 3
Mode extension                   : CM (complete main)
Codec ID                         : 2000
Duration                         : 1h 31mn
Bit rate mode                    : Constant
Bit rate                         : 384 Kbps
Channel(s)                       : 6 channels
Channel positions                : Front: L C R, Side: L R, LFE
Sampling rate                    : 48.0 KHz
Bit depth                        : 16 bits
Compression mode                 : Lossy
Stream size                      : 251 MiB (17%)
Alignment                        : Split accross interleaves
Interleave, duration             : 42 ms (1.00 video frame)
Interleave, preload duration     : 500 ms

[/quote]
